<svg width="32" height="24" viewBox="0 0 32 24" fill="none" xmlns="http://www.w3.org/2000/svg">
<rect x="0.25" y="0.25" width="31.5" height="23.5" rx="4.75" stroke="black" stroke-width="0.5"/>
<path d="M8 5.90462H20.5856C20.7055 6.71366 21.4345 7.33333 22.2834 7.33333C23.2314 7.33333 24 6.58708 24 5.66667C24 4.74625 23.2314 4 22.2834 4C21.4366 4 20.7087 4.61968 20.5856 5.42568H8V5.90462ZM22.2833 4.47895C22.9591 4.47895 23.5087 5.01257 23.5087 5.66869C23.5087 6.32481 22.9591 6.85843 22.2833 6.85843C21.6075 6.85843 21.0579 6.32481 21.0579 5.66869C21.0579 5.01257 21.6075 4.47895 22.2833 4.47895Z" fill="black"/>
<path d="M9.71639 13.3315C10.5652 13.3315 11.2941 12.5855 11.414 11.6171H24V11.0448H11.414C11.2941 10.0776 10.5652 9.33398 9.71639 9.33398C8.76851 9.33398 8 10.2295 8 11.334C8 12.4385 8.76851 13.334 9.71639 13.334V13.3315ZM9.71639 9.90368C10.3921 9.90368 10.9416 10.544 10.9416 11.3314C10.9416 12.1187 10.3921 12.7591 9.71639 12.7591C9.04069 12.7591 8.49116 12.1187 8.49116 11.3314C8.49116 10.544 9.04069 9.90368 9.71639 9.90368Z" fill="black"/>
<path d="M8 17.9066H20.5856C20.7055 18.7156 21.4345 19.3353 22.2834 19.3353C23.2314 19.3353 24 18.589 24 17.6686C24 16.7482 23.2314 16.002 22.2834 16.002C21.4366 16.002 20.7087 16.6216 20.5856 17.4276H8V17.9066ZM22.2833 16.4809C22.9591 16.4809 23.5087 17.0145 23.5087 17.6706C23.5087 18.3268 22.9591 18.8604 22.2833 18.8604C21.6075 18.8604 21.0579 18.3268 21.0579 17.6706C21.0579 17.0145 21.6075 16.4809 22.2833 16.4809Z" fill="black"/>
</svg>
